/* XPM */
static char *a_resized[] = {
/* columns rows colors chars-per-pixel */
"128 49 174 2 ",
"   c None",
".  c #020406",
"X  c #040708",
"o  c #07090A",
"O  c #0A0C0D",
"+  c #0D0F10",
"@  c #0F1012",
"#  c #121315",
"$  c #151619",
"%  c #17181B",
"&  c #191B1E",
"*  c #1C1E21",
"=  c #1F2124",
"-  c #202226",
";  c #24262A",
":  c #26292D",
">  c #292B2E",
",  c #2B2D32",
"<  c #2F3135",
"1  c #313337",
"2  c #33353A",
"3  c #36383D",
"4  c #383B3E",
"5  c #373A43",
"6  c #3B3D42",
"7  c #3E4146",
"8  c #3F4249",
"9  c #404246",
"0  c #41454A",
"q  c #46484D",
"w  c #484A4F",
"e  c #434651",
"r  c #474A51",
"t  c #4A4D53",
"y  c #4A4D59",
"u  c #4E5156",
"i  c #4E515A",
"p  c #52555A",
"a  c #56595E",
"s  c #585B5F",
"d  c #4C5161",
"f  c #505463",
"g  c #575A61",
"h  c #5A5D63",
"j  c #54596D",
"k  c #5A5E6B",
"l  c #5E6166",
"z  c #5E626F",
"x  c #5E6274",
"c  c #5F6379",
"v  c #62656B",
"b  c #66696E",
"n  c #666A71",
"m  c #6A6D73",
"M  c #6A6D7B",
"N  c #6D7176",
"B  c #6F727B",
"V  c #707277",
"C  c #72757B",
"Z  c #76797E",
"A  c #787B7F",
"S  c #666A81",
"D  c #686D82",
"F  c #6E7388",
"G  c #727682",
"H  c #767983",
"J  c #7A7D83",
"K  c #72778C",
"L  c #777B8D",
"P  c #787C8F",
"I  c #777B90",
"U  c #7A7E91",
"Y  c #7E8186",
"T  c #7E818A",
"R  c #7E8292",
"E  c #7C8098",
"W  c #82858B",
"Q  c #86888E",
"!  c #818592",
"~  c #868990",
"^  c #8A8C93",
"/  c #82859A",
"(  c #858899",
")  c #8A8E9C",
"_  c #8E9197",
"`  c #8D919A",
"'  c #909397",
"]  c #92959B",
"[  c #96999F",
"{  c #878BA3",
"}  c #898DA3",
"|  c #8B8FAA",
" . c #8E91A2",
".. c #8E91A9",
"X. c #9396A3",
"o. c #9699A3",
"O. c #9A9EA4",
"+. c #9195AD",
"@. c #969AA8",
"#. c #9A9EAC",
"$. c #979AB5",
"%. c #999CB2",
"&. c #969BB8",
"*. c #9A9EBA",
"=. c #9EA1A6",
"-. c #9EA2AA",
";. c #9DA0B4",
":. c #9DA1BE",
">. c #A2A5AB",
",. c #A5A8AF",
"<. c #A1A4B3",
"1. c #A6A9B1",
"2. c #AAADB3",
"3. c #A1A4BB",
"4. c #A9ACB9",
"5. c #AEB1B7",
"6. c #AEB2BA",
"7. c #B2B5BC",
"8. c #B5B9BE",
"9. c #9DA2C1",
"0. c #A1A6C4",
"q. c #A9ACC4",
"w. c #A1A7C9",
"e. c #A4AACC",
"r. c #AAAECB",
"t. c #AFB2C4",
"y. c #ADB0CC",
"u. c #B2B5C2",
"i. c #B6BAC3",
"p. c #B9BCC3",
"a. c #B2B5CB",
"s. c #B6B9C8",
"d. c #BABECC",
"f. c #A7ADD0",
"g. c #A9AED0",
"h. c #AEB2D2",
"j. c #B1B5D1",
"k. c #B6BAD6",
"l. c #BBBED3",
"z. c #B5BAD8",
"x. c #BBBEDB",
"c. c #BDC0C7",
"v. c #BEC2CA",
"b. c #BEC1D4",
"n. c #BEC1DC",
"m. c #C1C5CD",
"M. c #C5C9CF",
"N. c #C1C4D4",
"B. c #C5C9D3",
"V. c #CACDD5",
"C. c #C2C5DC",
"Z. c #C6C9DC",
"A. c #CACEDB",
"S. c #CCD0D7",
"D. c #CED2DC",
"F. c #D1D5DE",
"G. c #D4D8DE",
"H. c #C4C7E2",
"J. c #C6C9E3",
"K. c #CACCE4",
"L. c #CACDE9",
"P. c #CED2E2",
"I. c #CDD0E9",
"U. c #D1D6E2",
"Y. c #D5DAE4",
"T. c #D9DDE5",
"R. c #D2D5EC",
"E. c #D7DCE9",
"W. c #D9DEEA",
"Q. c #D3D5F0",
"!. c #DDE1E6",
"~. c #DDE1EB",
"^. c #E1E6EF",
"/. c #E1E6F0",
/* pixels */
"                                                                                                                                                                                                                                                                ",
"                                                                                                                                                                                                                                                                ",
"                                                                                                                                                                                                                                                                ",
"                                                                                                                                                                                                                                                                ",
"                                                                                                                                                                                                                                                                ",
"                                                                                                                                                                                                                                                                ",
"                                  C N N C C Z J Z Z J J J ^ Q Y V m b v A Z N V Z                                                                                                                                                                               ",
"                    W Q ^ W Z C N N N m l l ~ O.^ ^ Q Y ] 2.5.>.[ >.,.5.p.p.5.] Z b m N V Q                                                                                                                                                                     ",
"                ^ ^ W W Z C C C C N v z ~ u.Z.P.P.Y.Y.Y.F.v.8.6.7.5.>.=.=.5.M.G.M.2.>.[ ,.V.m.7.>.]                                                                                                                                                             ",
"          -.b v v m J Z Z C C Z V m T u.K.b.v.D.Y.Y.Y.Y.G.G.S.M.c.B.!.!.Y.T.S.8.8.5.8.G.^.T.5.[ ] O.O.O.=.                                                                                                                                                      ",
"        >.6.h 0 7 q A J Z Z C l Z s.K.Z.Z.b.c.v.S.F.U.i.' Q Y Y Z _ D.!.!./.c._ Q Q Q ^ 2.G.!.V.8.>.O.[ ] ] p.                                                                                                                                                  ",
"        ] >.h 0 8 q Z J J J n M a.b.s.B.v.8.c.V.F.G.G.=.A Y Y [ 8.G.G.Y.G.!.!.Y.M.8.' _ _ O.5.8.m.S.M.O.Q H C ~ p.!.                                                                                                                                            ",
"      v 8 B g 0 0 0 C J J B n 4.;.b l Q 7.M.D.U.F.D.P.F.p.=.6.8._ W 8.F.Y.Y.Y.T.!.G.5.>.[ _ Q W Q Q 5.8.] W J R 1.2.[ >.                                                                                                                                        ",
"      6 , Z h 0 0 0 B J J C T N t 3 2 w l Q 7.B.D.F.D.U.G.U.p.b b m b 8.F.U.U.G.G.!.!.8.Y A A Y _ =.8.G.S.m.c.5.>.Y V N _ M.                                                                                                                                    ",
"      - ; v g 0 0 0 m J A v p t 6 1 6 6 0 w l ^ v.S.D.P.Y.G.m.^ J Z [ S.Y.Y.S.1.5.G.^.S.5.] W T W W ' >.' A ] W A ^ C V V H J _                                                                                                                                 ",
"    : ; * > 9 q 0 8 n J C p 0 w 8 3 2 3 : 8 ( t.b.b.c.B.U.U.S.m.m.c.V.S.Y.D.W l v ^ S.S.~.c.N N v v b b N A W >.c.1.8.` L U L G C A                                                                                                                             ",
"      : = = 7 q 8 8 l Y N 0 7 8 8 7 2 p R q.J.I.J.n.v.v.n.A.A.V.S.D.D.S.v.Z l N N C N N 2.D.[ N M M N D C m b Y c.!.Y.V.2.@.+.-.-.-.>.V.T.                                                                                                                      ",
"          = 7 q 8 7 l H C y n S u 7 C a.L.L.J.H.n.b.n.Z.J.n.b.b.v.B.A.D.8.W Y o._ p l v b c.G.[ ^ ^ ] =.=.-.1.6.v.~.~.~.~.~.!.E.T.W.~.W.T.Y.Y.G.                                                                                                                ",
"            7 0 8 7 s H Z h M 9.$.E 9.h.z.z.x.n.H.J.Z.J.H.n.H.n.b.s.u.v.V.D.D.G.S.>.^ =.v.U.~.~.!.Y.Y.!.~.~.~.~.~.~.~.~.~.~.~.~.W.Y.Y.Y.U.U.U.T.W.W.W.T.                                                                                                        ",
"            0 0 8 7 i H C z i | :.:.e.f.f.f.f.h.n.n.n.Z.Z.Z.J.C.C.b.b.b.b.B.D.P.G.!.!.!.~.Y.~.~.~.~.E.!.Y.!.R.E.Y.Y.Y.Y.Y.~.~.~.E.E.W.Y.W.Y.E.W.W.W.T.E.W.T.T.Y.Y.                                                                                              ",
"            0 0 8 7 r C B n i M +.:.e.f.f.w.9.e.f.y.y.y.b.n.C.C.n.n.J.L.J.J.Z.Z.V.P.E.~./././.~.~.~.~.~.~.~.E.W.~.~.E.Q.E.~.E.Q.E.E.Y.E.E.~.E.E.E.E.W.W.~.W.W.E.T.Y.U.F.F.B.v.7.Q                                                                               ",
"            7 0 7 7 q N N b g u E 9.e.f.f.9.9.e.e.f.f.r.e.j.n.J.H.J.L.L.L.L.L.I.I.A.A.A.A.D.P.U.Y.~././.~.~.W.W.~.~.W.~.E.~.E.E.E.E.~.Y.Y.Y.E.W.W.E.W.E.E.U.U.U.D.D.B.v.p.7.>.@.R z 5 : : ; : > , , , , , , , , 1 3 6                                           ",
"            7 7 7 7 7 m N b l w i E ;.9.f.9.9.f.e.9.9.e.e.e.e.h.k.n.n.H.J.L.L.L.L.J.J.C.C.A.C.C.b.n.K.U.U.Y.Y.Y.~.W.~.W.~.E.E.E.E.U.U.G.U.F.D.S.F.D.A.N.d.p.8.2.>.-.O.X.` X.@.#.;.#. .H h y r >                                                                 ",
"            7 7 7 4 7 z N b l p 8 z g l I &.9.e.f.9.w.e.e.w.e.g.f.f.h.z.x.x.n.J.J.J.V.I.I.L.J.J.P.P.U.n.B.B.A.P.R.~.~.~.~.E.E.~.Y.P.D.V.m.i.u.6.1.>.O.o.O.O.>.1.6.i.v.B.P.U.Y.U.U.D.S.Z.N.l.k.b.k.                                                              ",
"            q 8 7 0 q a l h s p p Z b w q g N H L L R L L L R R R R U R E ! ( ) ` ` ] ] o.o.o.o.=.X.=.O.=.=.=.O.-.-.>.>.1.>.1.6.p.p.p.8.7.5.,.>.>.>.2.5.p.v.B.F.Y.E.E.U.U.U.U.U.F.F.Y.F.U.U.U.U.A.Z.Z.N.d.i.u.u.                                                ",
"            0 8 q u p p p p p p a p s g g a a s g l g a g g s g h h h h l l h h l h l l z b l v z l l l l h l l z x b v v b l b b b b n b n m N N N b b Z ' 5.V.Y.U.U.U.Y.Y.Y.G.U.F.G.Y.U.D.D.D.U.F.D.D.A.B.N.m.N.N.m.N.u.-.`                                   ",
"              7 7 6 4 6 6 6 6 6 7 4 6 3 1 1 2 1 < < < < < < < < < < < > > > : : = = = = = = * * * & $ $ $ $ & & * * = = = = ; > < 4 t h b N Y ^ ] ] [ 7.A.W.W.E.Y.F.Y.Y.Y.Y.Y.Y.Y.F.F.D.V.B.M.S.A.K.P.I.P.I.P.P.U.I.U.P.P.A.Z.d.6.o.Z v b v v b p a             ",
"                    + @ O + # # # @ O o o o O o X o O o o o o o o o o O O o o O O o . . . . . . . . . . . . . o * * : : > 3 q i l b A _ O.5.d.B.D.D.P.Y.U.E.W.E.W.~.W.W.Y.U.D.D.D.D.A.V.V.D.P.I.Y.R.R.Q.R.Q.Q.R.R.U.Z.B.v.u.>.] W Z C m b v a w 3 > * $ $       ",
"                                                                          + o + o o . . . X . . X . X X X X X @ 5 8 8 5 5 y d d d g z n B R ` ..%.q.s.C.J.K.P.U.P.P.P.U.D.U.P.P.P.P.I.E.I.Q.E.I.R.U.R.U.Y.I.Z.d.5.O.^ J C V m v v p w 4 : & $ # # # $ $ $       ",
"                                                                                    X o X X . X X o o o o o X O < 8 S S D S M j j c c D I I L F L ) +.;.q.a.l.N.N.6.X.] o.>.5.u.c.b.C.V.P.I.I.P.B.d.7.>.) W C N m m v v p q 4 : & $ # # # # # # # # $ $ $       ",
"                                                                                        o X X o o o o O o o o o O # = 5 d x D F L { { } ....| { ..&.*.3.*.0.q.j.@.p t 7 , 3 u 0 4 q z N N N W Q H m b b v v h u q 1 > * # # @ # # # # # $ # # # # $ # # #       ",
"                                                                                              o o o o + @ + o O + O + O O $ = 2 8 c I / | $.$.&.*.9.0.0.q.a.q.+.i 3 2 - ; 4 < = = 1 7 < # = u s u p w 9 1 ; & $ # @ # # # # # # # # # # # # # #                 ",
"                                                                                                  O @ O O @ O O @ @ @ @ @ @ @ + O + % * , e g C / } ..%.3.<.+.g , < * X * 5 5 2 2 5 5 2 = < 2 2 > & $ # @ # # # # # # # # # # # # # #                           ",
"                                                                                                      O @ @ @ @ @ @ # @ # # $ # # # # # # @ @ $ : 3 r H @.] s * * * * * : : , : , < 2 5 2 2 < * # # @ # # # # # # $ # # # # #                                   ",
"                                                                                                          @ @ @ @ # # # # % % $ % $ $ # $ # $ # # # # 4 ) V * $ $ * * * * * * * * * * * = : * # @ @ # @ # # @ # # # #                                           ",
"                                                                                                                @ @ # # # # # # $ $ $ $ $ $ $ $ $ $ $ : l 1 $ % $ $ % % % $ % % $ * * $ * % # @ # # # # # #                                                     ",
"                                                                                                                    @ @ @ O + @ @ @ @ # # # $ $ $ $ $ $ % # # # @ $ # $ % # $ % $ * % * * $ # # # #                                                             ",
"                                                                                                                                                # # @ @ # # + + @ @ @ @ # # @ # # @ @ @ & % # #                                                                 ",
"                                                                                                                                                                                      + #                                                                       ",
"                                                                                                                                                                                                                                                                ",
"                                                                                                                                                                                                                                                                ",
"                                                                                                                                                                                                                                                                ",
"                                                                                                                                                                                                                                                                ",
"                                                                                                                                                                                                                                                                ",
"                                                                                                                                                                                                                                                                ",
"                                                                                                                                                                                                                                                                ",
"                                                                                                                                                                                                                                                                ",
"                                                                                                                                                                                                                                                                ",
"                                                                                                                                                                                                                                                                "
};
