/* XPM */
static char *flameE1698830692[] = {
/* columns rows colors chars-per-pixel */
"23 45 152 2 ",
"   c None",
".  c #0C257F",
"X  c #072282",
"o  c #0A2581",
"O  c #0F2986",
"+  c #0D278A",
"@  c #0E298D",
"#  c #14338F",
"$  c #102C91",
"%  c #153594",
"&  c #183A95",
"*  c #15359A",
"=  c #17399F",
"-  c #1A3D9D",
";  c #1A3DA2",
":  c #1B3FAF",
">  c #1C41A7",
",  c #1E44AB",
"<  c #1D44B4",
"1  c #1D45B9",
"2  c #2248A6",
"3  c #2147AC",
"4  c #254CAC",
"5  c #2147B0",
"6  c #234CB2",
"7  c #2046BA",
"8  c #224CBE",
"9  c #2652B5",
"0  c #2C5AB7",
"q  c #2855BA",
"w  c #2E5EBB",
"e  c #3162BE",
"r  c #2652C3",
"t  c #2C5BC2",
"y  c #2957C9",
"u  c #2D5ECC",
"i  c #2F60CC",
"p  c #3163C6",
"a  c #3164CC",
"s  c #356ACD",
"d  c #386FCD",
"f  c #3B74CF",
"g  c #2F62D1",
"h  c #3166D4",
"j  c #356BD4",
"k  c #366DDC",
"l  c #3D77D1",
"z  c #3E78D5",
"x  c #3770DD",
"c  c #3D77DC",
"v  c #3E7ADC",
"b  c #356CE3",
"n  c #356FEA",
"m  c #3973E3",
"M  c #3670E9",
"N  c #3D7CE9",
"B  c #3A77F3",
"V  c #3D7CF5",
"C  c #3D7FFB",
"Z  c #407FE6",
"A  c #407FEB",
"S  c #497EE9",
"D  c #447DF3",
"F  c #467FF9",
"G  c #3F81F9",
"H  c #4280D6",
"J  c #4686DC",
"K  c #4686E3",
"L  c #4887E0",
"P  c #498BE2",
"I  c #478BEB",
"U  c #498AEA",
"Y  c #5184EB",
"T  c #508CEF",
"R  c #4D93EC",
"E  c #5493EC",
"W  c #5895ED",
"Q  c #529CEF",
"!  c #4384F5",
"~  c #4884F3",
"^  c #458AF3",
"/  c #4A8DF5",
"(  c #4284FA",
")  c #468BFB",
"_  c #498DFC",
"`  c #508CF0",
"'  c #5F8BF0",
"]  c #4D93F4",
"[  c #4F98F5",
"{  c #4C93FC",
"}  c #4F99FC",
"|  c #5394F3",
" . c #529BF5",
".. c #5197FA",
"X. c #519BF9",
"o. c #609DEC",
"O. c #5EA5EF",
"+. c #4AA2FF",
"@. c #55A2F7",
"#. c #5AA5F4",
"$. c #53A9F7",
"%. c #5DACF5",
"&. c #55A1FD",
"*. c #58A7FB",
"=. c #5BABFB",
"-. c #5EB2F6",
";. c #5FB1FA",
":. c #60A1F0",
">. c #60AFF7",
",. c #63B4F4",
"<. c #68B7F3",
"1. c #65BAF5",
"2. c #6DBDF5",
"3. c #62B5FD",
"4. c #60B8F8",
"5. c #6BC2F6",
"6. c #6BC4F8",
"7. c #73C2F5",
"8. c #7AC6F2",
"9. c #70CBF7",
"0. c #7BCCF7",
"q. c #72C7F8",
"w. c #71CDF8",
"e. c #7DC8F9",
"r. c #78D8F7",
"t. c #77D7FA",
"y. c #7BD4F9",
"u. c #8AD4F7",
"i. c #85D9F6",
"p. c #87D3F9",
"a. c #85D9F9",
"s. c #8CDCFB",
"d. c #94D6F5",
"f. c #96D9F7",
"g. c #94DBF9",
"h. c #A1DEF6",
"j. c #A2DCF9",
"k. c #97E0FA",
"l. c #9AE1FB",
"z. c #A4E4FD",
"x. c #ABE6FA",
"c. c #B2E5FA",
"v. c #BFE6F8",
"b. c #B4E8FB",
"n. c #BDEAFB",
"m. c #C5ECFC",
"M. c #CAEDFA",
"N. c #D0EFFB",
"B. c #D2F0FC",
"V. c #DBF2FC",
"C. c #E5F5FD",
"Z. c #FBFFFF",
/* pixels */
"                                              ",
"                                              ",
"                                              ",
"              ^ z.Z.Z.Z.Z.Z.z.^               ",
"              +.d.C.C.C.C.C.g.+.'             ",
"            S $.u.V.V.V.V.V.s.$.Y             ",
"            D -.0.M.B.M.B.M.0.-.(             ",
"          O.V ,.6.m.M.m.M.m.q.1.B O.          ",
"          W n 1.5.c.n.n.n.c.5.1.n W           ",
"          ] b 1.1.h.b.x.b.j.1.1.k ]           ",
"        8.I k 1.1.d.x.z.x.d.,.3.k ^ 8.        ",
"        5.N k ,.-.p.x.f.z.p.-.,.k N 2.        ",
"        <.x j -.=.0.l.g.k.e.-.-.k k ,.        ",
"        ,.j g %.%.2.s.s.s.5.%.#.h h ,.        ",
"        ,.i i #.=.1.i.i.s.1.%.#.i h ,.        ",
"        ,.i y @.=.%.y.y.y.%.%.Q y u 3.        ",
"        -.s r R =.*.w.t.w.#.%.R r a 3.        ",
"        ;.a 1 K #.@.6.t.6.X.*.P 8 a 3.        ",
"        3.s 1 v @. .,.r.1.[ *.v 7 s 3.        ",
"        3.f < s X.X.#.w.$.[ X.s 1 f 3.        ",
"        3.z < t | X. .@.[ X.] t 1 f 3.        ",
"        3.J < 6 I X.[ ] [ [ U 9 , H 3.        ",
"        =.P , , v [ ] ] ] [ N 3 < P %.        ",
"        #.Q 5 , h ] / ] ] [ s > 3 E %.        ",
"        #. .q ; q ~ / / / / q > 9 X.%.        ",
"        %.*.p ; 3 Z ) ^ ^ G , ; e *.#.        ",
"        #.=.f = - j ) ~ ^ s ; = l =.%.        ",
"          =.J = ; 9 D ( ! 9 - = L =.          ",
"          @.| 2 = - m ( m - - 3 / &.          ",
"           .X.e % * q ( t * % w X. .          ",
"          | X.v $ & - u ; & $ z &.|           ",
"          o.&.I - % % # & # - I &.            ",
"            ..{ w + % % % O 0 / ..            ",
"            | { v + # # % + c } E             ",
"            W } ^ 4 o % o 4 ) } |             ",
"              { ) v o O X c ) {               ",
"              ` ) / p . p ^ ) /               ",
"                _ ! ~ G ! ! } |               ",
"                ^ ( ! ( ( ( ~                 ",
"                / ) G D ! ) /                 ",
"                  ~ V ! F !                   ",
"                    _ C )                     ",
"                      ~                       ",
"                                              ",
"                                              "
};
