/* XPM */
static char *_47852ec9d8847f3f2017f5200f5ba0122tCHzF5d3e1EiXA[] = {
/* columns rows colors chars-per-pixel */
"23 45 177 2 ",
"   c None",
".  c #0C257F",
"X  c #072282",
"o  c #0A2581",
"O  c #0F2986",
"+  c #0D278A",
"@  c #0E298D",
"#  c #14338F",
"$  c #102C91",
"%  c #153594",
"&  c #183A95",
"*  c #15359A",
"=  c #17399F",
"-  c #1A3D9D",
";  c #1A3DA2",
":  c #1B3FAF",
">  c #1C41A7",
",  c #1E44AB",
"<  c #1D44B4",
"1  c #1D45B9",
"2  c #2248A6",
"3  c #2147AC",
"4  c #254CAC",
"5  c #2147B0",
"6  c #234CB2",
"7  c #2046BA",
"8  c #224CBE",
"9  c #2652B5",
"0  c #2C5AB7",
"q  c #2855BA",
"w  c #2E5EBB",
"e  c #3162BE",
"r  c #2652C3",
"t  c #2C5BC2",
"y  c #2957C9",
"u  c #2D5ECC",
"i  c #2F60CC",
"p  c #3163C6",
"a  c #3164CC",
"s  c #356ACD",
"d  c #386FCD",
"f  c #3B74CF",
"g  c #2F62D1",
"h  c #3166D4",
"j  c #356BD4",
"k  c #366DDC",
"l  c #3D77D1",
"z  c #3E78D5",
"x  c #3770DD",
"c  c #3D77DC",
"v  c #3E7ADC",
"b  c #356CE3",
"n  c #356FEA",
"m  c #3973E3",
"M  c #3670E9",
"N  c #3D7CE9",
"B  c #3A77F3",
"V  c #3D7CF5",
"C  c #3D7FFB",
"Z  c #407FE6",
"A  c #407FEB",
"S  c #497EE9",
"D  c #447DF3",
"F  c #467FF9",
"G  c #3F81F9",
"H  c #4280D6",
"J  c #4686DC",
"K  c #4686E3",
"L  c #4887E0",
"P  c #498BE2",
"I  c #478BEB",
"U  c #498AEA",
"Y  c #5184EB",
"T  c #508CEF",
"R  c #4D93EC",
"E  c #5493EC",
"W  c #5895ED",
"Q  c #529CEF",
"!  c #4384F5",
"~  c #4884F3",
"^  c #458AF3",
"/  c #4A8DF5",
"(  c #4284FA",
")  c #468BFB",
"_  c #498DFC",
"`  c #508CF0",
"'  c #5F8BF0",
"]  c #4D93F4",
"[  c #4F98F5",
"{  c #4C93FC",
"}  c #4F99FC",
"|  c #5394F3",
" . c #519AF6",
".. c #549FF4",
"X. c #539BF5",
"o. c #5197FA",
"O. c #519AF8",
"+. c #539EF8",
"@. c #509BFC",
"#. c #609DEC",
"$. c #5FA7EF",
"%. c #5DA2EE",
"&. c #4AA2FF",
"*. c #55A0F7",
"=. c #57A6F7",
"-. c #55A0F6",
";. c #5BA3F2",
":. c #5AA5F6",
">. c #5AA5F4",
",. c #53A9F7",
"<. c #5BAAF6",
"1. c #5EA8F4",
"2. c #5EACF6",
"3. c #5DADF5",
"4. c #55A1FB",
"5. c #53A0FF",
"6. c #54A1FF",
"7. c #57A2FF",
"8. c #57A4FA",
"9. c #58A7FF",
"0. c #59A7FA",
"q. c #5EADFB",
"w. c #5BABFF",
"e. c #59A9FF",
"r. c #5CAEFF",
"t. c #5CABF8",
"y. c #5EB2F6",
"u. c #5FB1FA",
"i. c #60A1F0",
"p. c #60AFF7",
"a. c #63B4F4",
"s. c #68B7F3",
"d. c #65BAF5",
"f. c #6DBDF5",
"g. c #62B3FE",
"h. c #61B4FF",
"j. c #62B5FF",
"k. c #62B6FF",
"l. c #62B5FC",
"z. c #60B8F8",
"x. c #6BC2F6",
"c. c #6BC4F8",
"v. c #73C2F5",
"b. c #7AC6F2",
"n. c #70CBF7",
"m. c #7BCCF7",
"M. c #72C7F8",
"N. c #71CDF8",
"B. c #7DC8F9",
"V. c #78D8F7",
"C. c #77D7FA",
"Z. c #7BD4F9",
"A. c #8AD4F7",
"S. c #85D9F6",
"D. c #87D3F9",
"F. c #85D9F9",
"G. c #8CDCFB",
"H. c #94D6F5",
"J. c #96D9F7",
"K. c #94DBF9",
"L. c #A1DEF6",
"P. c #A2DCF9",
"I. c #97E0FA",
"U. c #9AE1FB",
"Y. c #A4E4FD",
"T. c #ABE6FA",
"R. c #B2E5FA",
"E. c #BFE6F8",
"W. c #B4E8FB",
"Q. c #BDEAFB",
"!. c #C5ECFC",
"~. c #CAEDFA",
"^. c #D0EFFB",
"/. c #D2F0FC",
"(. c #DBF2FC",
"). c #E5F5FD",
"_. c #FBFFFF",
/* pixels */
"                                              ",
"                                              ",
"                      D                       ",
"                    ) C _                     ",
"                  ~ G ! V ~                   ",
"                / ) ! ! ! _ T                 ",
"                ~ ( ! ( ! ( ~                 ",
"              | { ! ~ A ~ ! {                 ",
"              / ) ) p . p ) ) `               ",
"              { _ c X O o v ) {               ",
"            E } / 4 o # o 4 ^ { W             ",
"            E { v + % % # + v { |             ",
"            o./ 0 O * % * + w ] o.            ",
"            5.U - # % # * * - I 6.#.          ",
"          | 6.z @ & ; u - & $ z 5.X.          ",
"           .@.w * * t ( w * % e @.X.          ",
"          6.R 3 - - m ( m ; = 2 R 4.          ",
"          w.J = - 9 ! ! ! 9 ; = L w.          ",
"        $.w.f = ; j ) ~ ) j - = f r.;.        ",
"        ;.w.e ; , Z _ ) _ Z , ; e 9.1.        ",
"        t.*.9 > q / / / / ^ q ; 9 *.:.        ",
"        <.R 5 , s } ] ] ] ] s , 5 Q :.        ",
"        1.P , 3 v } ] [ ] } v , , P q.        ",
"        g.H < 9 U O.[ [ [  .I 6 : J h.        ",
"        h.l < t ]  .[ .. .O.] t < z h.        ",
"        h.d < d +. .=.n.:. .+.s < f h.        ",
"        h.s 7 v 4. .d.V.d.X.8.v 1 s h.        ",
"        h.a 8 P 0...c.C.c.*.0.K 8 a u.        ",
"        g.i r R 0.:.N.C.N.:.0.R r a y.        ",
"        l.u y Q 0.2.Z.Z.Z.2.t.Q y a a.        ",
"        a.g a >.<.s.F.F.S.s.q.>.u a a.        ",
"        a.h h 1.2.v.G.G.G.f.2.2.h j a.        ",
"        s.k k p.2.B.I.K.I.m.q.y.j x s.        ",
"        f.N k a.y.A.Y.U.Y.D.y.d.k N v.        ",
"        v.^ k a.l.J.T.Y.T.H.z.d.k ^ b.        ",
"          ] k s.d.P.W.R.W.L.d.s.b ]           ",
"          E M s.x.R.Q.Q.Q.R.x.s.n E           ",
"          %.B s.M.Q.~.!.~.E.M.d.B i.          ",
"            F y.m.~./.^./.~.m.y.D             ",
"            Y ,.A.(.(.(.(.(.D.,.S             ",
"            ' &.K.).).).).).J.&.              ",
"              ^ Y._._._._._.Y.^               ",
"                                              ",
"                                              ",
"                                              "
};
