/* XPM */
static char *mars1698830691[] = {
/* columns rows colors chars-per-pixel */
"64 45 103 2 ",
"   c None",
".  c #9F3903",
"X  c #A53D02",
"o  c #AB3E01",
"O  c #A43E0B",
"+  c #B03D00",
"@  c #A73F10",
"#  c #A83E10",
"$  c #AB4103",
"%  c #AB410C",
"&  c #B44202",
"*  c #BA4503",
"=  c #BB4805",
"-  c #B3450A",
";  c #B94609",
":  c #BE490A",
">  c #A74116",
",  c #AC4310",
"<  c #B34712",
"1  c #B64916",
"2  c #BB4A14",
"3  c #B64918",
"4  c #BF4C19",
"5  c #C64500",
"6  c #CA4601",
"7  c #C64B05",
"8  c #CC4A02",
"9  c #C6470B",
"0  c #C44B0D",
"q  c #CD4D0C",
"w  c #D14C04",
"e  c #DA4F04",
"r  c #D24E0B",
"t  c #CE520C",
"y  c #D95007",
"u  c #D3520C",
"i  c #D95009",
"p  c #C44C12",
"a  c #CD4D13",
"s  c #C44E18",
"d  c #CB4D1C",
"f  c #D14F13",
"g  c #D04E19",
"h  c #C65113",
"j  c #CD5013",
"k  c #C6511D",
"l  c #CC521C",
"z  c #D25215",
"x  c #DA5616",
"c  c #D55A15",
"v  c #DA5B16",
"b  c #D4541B",
"n  c #DA561B",
"m  c #D7591A",
"M  c #DB591D",
"N  c #E45304",
"B  c #E85304",
"V  c #E3550C",
"C  c #EB570A",
"Z  c #E25615",
"A  c #E75814",
"S  c #ED5A14",
"D  c #E55B1D",
"F  c #DD631C",
"G  c #DD6A1D",
"H  c #E2641E",
"J  c #E36D1E",
"K  c #E4731F",
"L  c #CD5423",
"P  c #D25623",
"I  c #D95722",
"U  c #D65924",
"Y  c #DD5C25",
"T  c #D65A29",
"R  c #DE5D29",
"E  c #E15E26",
"W  c #E85F26",
"Q  c #E15E2B",
"!  c #E45E30",
"~  c #DE6224",
"^  c #DB6C21",
"/  c #E06424",
"(  c #E36C23",
")  c #E96E20",
"_  c #E4622D",
"`  c #EC632A",
"'  c #E56C2A",
"]  c #EB6A2C",
"[  c #F46528",
"{  c #F06E2C",
"}  c #E67423",
"|  c #E97623",
" . c #EC7923",
".. c #E5762B",
"X. c #E57828",
"o. c #F27323",
"O. c #FE7D26",
"+. c #F27429",
"@. c #FF7B2B",
"#. c #E56130",
"$. c #EA6432",
"%. c #F06433",
"&. c #FF8127",
/* pixels */
"                                                  9 w 8 5 6 6 8 Y Y Y Y Q { }                                                   ",
"                                              6 p E Q E R R Q E Q ! _ _ Q $.' } | ..                                            ",
"                                            z A Z Q ! ! #.#.#.#.#.Q R R _ ! ! +.@.'                                             ",
"                                      d B w Y R E E Y E Y Y Y R #.I q z R #.! ! Q _  .&...                                      ",
"                                    p g z z z z z g I Y m z z z R _ Y a z b b n E #.] #.' X.                                    ",
"                                  d w r z z b M I n Y I z b I M b b n M I b j z I E Y Q %.' ..                                  ",
"                                d N 8 z z z Y Q Y R R Y z I R Y m z b R / I c z z x z E _ Q O...                                ",
"                              9 u z z I Q R Y Y Y / Q Y Q c a z Y R Y R Y Y Y z z z z n M M }  ...                              ",
"                            p f z f z b n R R Q Q 2 2 4 p M I Y Y Y R _ R Y ~ I I Y R b z M D } X...                            ",
"                            A z m b m z b Y Y ~ _ 2 $ o o l I Y Y I ~ _ E Y R E Y Y #.Y z n x M | &.                            ",
"                        9 Z Q z m R Y Y R R Y _ _ R m 5 % X ; z q U Q Y Y Y R Y b z Y ~ I z n n n |                             ",
"                        9 V Q Y Y Y Q Q P - $ l / Y Y b a $ s Q _ L - b Y I z m z z R Y E Y z b D _ '                           ",
"                        z D Y R E Y s Y U = 2 P Q Y R Y n 0 l ! P s : j E Y b U m I Y R Y ~ z z M E O...                        ",
"                      8 E E Y Y E Y o L Y z Y E Y Y Y Y M z n Y $ 0 n j R _ Y R Y R Y R Y R z m n n o.}                         ",
"                      5 n E Y q r n x M n n n x n x Q _ Y M n n Y b j n - o $ X P #.U Y R R z z I Q ! ' }                       ",
"                    d b Y E Y 8 f Y Y n z x n n x x Y Y M x n Y _ I 8 - s L L L L L _ ~ Y Y b z n E Q ] }                       ",
"                  p C E E Y n 6 z / I m j a z x M M x n n n I R R g 5 1 T _ ! $.L 3 R R R Y b z b x Q ] }                       ",
"                    r E Y Y v 8 r n f z f 8 5 n E R I M E E R Y r & 3 Q #.Y z Q #.T $ T _ Y z M E x R ] X.                      ",
"                    i P I M Y I M n Y n z f r b I M n M E n I Y 8 & 1 #.Q Y I / _ T X T W z a z b P R #._ }                     ",
"                    i b m I Y R Y n E g 0 p m n x x x m I f b R r & 1 #.Q Y I m ! ~ X T _ b I I b P Y Q ! @.                    ",
"                    i E U P Y Y I x n 2 X $ Y I j M r 8 z z U Y w & 1 Q R b 8 5 Y R X T _ _ _ Q Y g z Y _ %.                    ",
"                    i P Y R Y Y Y Y - L Q T 3 p M z z f 8 m Q ! 8 5 9 < q w 6 D 4 3 ~ I n M D p < Y m b W `                     ",
"                    y L T Y Y Y E m X P $.$.% : n z z z z R #.Q b q 5 * & & = p 0 s #.Q Y M Y a 2 E m z U `                     ",
"                    y P Y R Y n n z % L _ R 3 : z z z b R ! Q _ _ m 8 w * $ $ X a E ! #._ Y Y M n Y b g P W                     ",
"                    i n Y Y Y b z z z ; X $ z m z f n R #._ ! #.(  .J 6 8 8 8 5 m Y R Y Y Q Y Y Y Y c z c i                     ",
"                    y w I / Y b z z Y I l L Y b b Y Q _ ! Q _ } | G c 6 6 w x n Y Y Y Q I m b ~ ( Q b j z B                     ",
"                    w 6 I R Y b z m #.Q / Q Y Y Y #.#._ ' _ / J ( c 5 8 u c M Y Y I Y Y M m g G ( Y M n a a                     ",
"                    * 6 n R Y P T R #.R Y Y Y Q #._ Q _ } | G a z r 8 g } ( I c f z z a b R Y R I g J K d                       ",
"                    7 8 M R Y f l T E Q ! Q #.Q R ) | ( m m c 8 8 5 u ( } J g z z z Y ( K ( } / Y ( | K T                       ",
"                    % * z I Y 8 q l T R #.#.R Y / ^ G F f a 8 8 c v F H J F f m z n ( ( ( ( ) / ( | J H R                       ",
"                      % * r E r 5 w P R #.Q b F } z g z z w 8 u } | J n n n n n n M } ~ Y Y T ^ } } n z ~                       ",
"                      % * p E Q b 5 5 Y Q g ) G 8 6 6 8 8 6 v | K F z E E Y Y E Y Y E n p = ; * p ~ ` R                         ",
"                        % : h b m n I Q / G G u 5 8 8 8 6 & h H F c z n n Y Y Y Y n m a & o o o $ s [ R                         ",
"                        % * & 0 m Y #.! _ } w 5 6 8 t t 8 - p z a z f p c E ~ Y Y c q & o ; - - & o b                           ",
"                        > & $ j f z Q #.R 5 8 5 8 5 H G X b E Y n n z X G | } n Y U & $ ; z u z a $                             ",
"                            = - 9 b #.Y r 6 b F J J K } P I E Y Y H ( G F v H n l : $ : l Y I Y b :                             ",
"                            % $ = j R j 5 z Y ~ G F G ( _ Q Y Y / } K K l z n M 0 o $ j Y Y Y ` ~ >                             ",
"                              % $ $ z ; p Y R l o + l Q Q E Y E } | J g L U n Q d & $ l E Y R ( X.                              ",
"                                > = $ 0 c z Y Y P & & p Y n / | } H M Y ~ I z Y d $ $ j z x O.                                  ",
"                                  % $ 0 0 : Y E Y l 0 0 p 0 c H ( ~ I I I b n E h o $ : q p (                                   ",
"                                    % $ O $ l Y Y Q Y j * $ 9 M I Y I z u b Q Y j = & # O O                                     ",
"                                          % $ l W Q E n z z Y Y n m z z Y Y z z Y Y ;                                           ",
"                                              3 m p ` ` Y n M T b z z z D D n S I                                               ",
"                                                X . k R P b I L z l z j g g b b                                                 ",
"                                                        X l P P P L L P                                                         "
};
